# xmcd CD database file
#
# Track frame offsets:
#	150
#	19758
#	41700
#	61563
#	85223
#	107908
#	127353
#	148110
#	167215
#	191753
#	213143
#
# Disc length: 3225 seconds
#
# Revision: 4
# Processed by: cddbd v1.5.2PL0 Copyright (c) Steve Scherf et al.
# Submitted via: CDex 1.70beta2
#
DISCID=9f0c970b
DTITLE=Little Feat - Shake Me Up
DYEAR=1991
DGENRE=Rock
TTITLE0=Spider's Blues (Might Need It Sometime)
TTITLE1=Shake Me Up
TTITLE2=Things Happen
TTITLE3=Mojo Maiku
TTITLE4=Loved And Lied To
TTITLE5=Don't Try So Hard
TTITLE6=Boom Box Car
TTITLE7=Fast and Furious
TTITLE8=Livin' On Dreams
TTITLE9=Clownin'
TTITLE10=Down In Flames
EXTD=YEAR: 1991
EXTT0=
EXTT1=
EXTT2=
EXTT3=
EXTT4=
EXTT5=
EXTT6=
EXTT7=
EXTT8=
EXTT9=
EXTT10=
PLAYORDER=
